<?xml version="1.0" encoding="UTF-8"?>
<svg xmlns="http://www.w3.org/2000/svg" xmlns:xlink="http://www.w3.org/1999/xlink" version="1.1" viewBox="0 0 174.67 29">
  <defs>
    <style>
      .cls-1, .cls-2 {
        fill: none;
      }

      .cls-3 {
        fill: #495057;
      }

      .cls-4 {
        clip-path: url(#clippath-1);
      }

      .cls-5 {
        clip-path: url(#clippath-3);
      }

      .cls-6 {
        clip-path: url(#clippath-2);
      }

      .cls-2 {
        clip-rule: evenodd;
      }

      .cls-7 {
        fill: #1e64ff;
      }

      .cls-8 {
        clip-path: url(#clippath);
      }
    </style>
    <clipPath id="clippath">
      <path class="cls-2" d="M137.63.9c1.21,0,2.2.98,2.2,2.19s-.98,2.19-2.2,2.19-2.19-.98-2.19-2.19.98-2.19,2.19-2.19ZM97.2.9c1.21,0,2.19.98,2.19,2.19s-.98,2.19-2.19,2.19-2.19-.98-2.19-2.19.98-2.19,2.19-2.19ZM166.31,10.92c-2.24,0-4.06,1.82-4.06,4.06s1.82,4.06,4.06,4.06,4.07-1.82,4.07-4.06-1.82-4.06-4.07-4.06ZM137.63,7.22c1.1,0,1.99.89,1.99,1.98v11.6c0,1.1-.89,1.98-1.99,1.98s-1.98-.89-1.98-1.98v-11.6c0-1.09.89-1.98,1.98-1.98ZM130.5,7.22s.06,0,.08,0h.12c.47-.02.95.14,1.34.46.84.7.95,1.95.25,2.79l-7.01,8.34h5.49c1.1,0,1.99.89,1.99,1.98s-.89,1.98-1.99,1.98h-9.74c-.45,0-.9-.15-1.28-.46-.84-.7-.95-1.95-.24-2.79l7.01-8.34h-4.58c-1.1,0-1.99-.89-1.99-1.99s.89-1.98,1.99-1.98h1.54c.08,0,.15,0,.23,0h6.8ZM97.2,7.22c1.1,0,1.99.89,1.99,1.98v11.6c0,1.1-.89,1.98-1.99,1.98s-1.99-.89-1.99-1.98v-11.6c0-1.09.89-1.98,1.99-1.98ZM166.31,6.95c4.43,0,8.04,3.6,8.04,8.03s-3.61,8.03-8.04,8.03-8.04-3.6-8.04-8.03,3.61-8.03,8.04-8.03ZM150.25,6.95c2.15,0,4.17.84,5.69,2.35.77.77.77,2.03,0,2.81-.78.77-2.03.77-2.81,0-.77-.77-1.79-1.19-2.88-1.19s-2.11.42-2.87,1.19c-.77.76-1.19,1.78-1.19,2.87s.42,2.1,1.19,2.87c.77.76,1.79,1.19,2.87,1.19s2.11-.43,2.88-1.19c.77-.78,2.03-.78,2.81,0,.77.77.77,2.03,0,2.8-1.52,1.52-3.54,2.35-5.69,2.35s-4.16-.84-5.68-2.35c-1.52-1.51-2.36-3.53-2.36-5.67s.84-4.16,2.36-5.68c1.52-1.52,3.54-2.35,5.68-2.35ZM113.81,8.29c.51-.97,1.7-1.35,2.68-.84.97.51,1.35,1.7.84,2.68l-9.05,17.44c-.34.65-.99,1.04-1.68,1.06-.34.02-.68-.05-1-.22-.97-.5-1.35-1.7-.85-2.67l2.56-4.94-5.55-10.67c-.51-.97-.13-2.17.85-2.68.97-.51,2.17-.13,2.68.84l4.26,8.2,4.26-8.2Z"/>
    </clipPath>
    <clipPath id="clippath-1">
      <rect class="cls-1" x="-650.33" y="-2862" width="1440" height="4117"/>
    </clipPath>
    <clipPath id="clippath-2">
      <path class="cls-1" d="M65.57,6.05c.51,0,.97.44.97.96s-.46.96-.97.96-.99-.44-.99-.96.46-.96.99-.96ZM7,8.74h-2.99v5.95h2.99c2.12,0,3.54-.85,3.54-2.99,0-2.02-1.43-2.96-3.54-2.96ZM19.88,12.69c-1.68,0-3.57,1.31-3.57,4.02s1.89,4.04,3.57,4.04c1.56,0,3.5-1.19,3.5-4.04s-1.93-4.02-3.5-4.02ZM61.81,10.67c.51,0,.92.41.92.9,0,.16-.07.28-.12.44l-3.41,9.99c-.16.46-.48.74-.9.74s-.74-.28-.92-.74l-3.41-8.45-3.38,8.45c-.18.46-.53.74-.92.74-.41,0-.74-.28-.9-.74l-3.41-9.99c-.05-.16-.12-.28-.12-.44,0-.48.41-.9.9-.9.37,0,.74.23.85.53l2.78,8.61,3.31-8.55c.16-.39.46-.6.87-.6s.74.21.9.6l3.31,8.55,2.78-8.61c.12-.32.48-.53.83-.53ZM77.34,6.28c.51,0,.94.44.94.94v6.27c.14-.78,1.56-2.87,4.3-2.87,2.16,0,4.49,1.31,4.49,5.12v6.09c0,.51-.44.96-.97.96s-.94-.46-.94-.96v-6.09c0-2.5-1.52-3.45-3.13-3.45-2.35,0-3.54,1.98-3.75,3.28v6.25c0,.51-.44.96-.94.96s-.97-.46-.97-.96V7.23c0-.51.44-.94.97-.94ZM70.94,7.82c.53,0,.94.44.94.94v1.98h1.84c.46,0,.81.3.81.78s-.35.8-.81.8h-1.84v7.81c0,.71.3,1.01.87,1.01.35,0,.64-.09.9-.14.51-.11.87.21.87.67,0,.83-1.13,1.13-2.16,1.13-1.22,0-2.39-.44-2.39-2.6v-7.88h-1.01c-.48,0-.81-.32-.81-.8s.32-.78.81-.78h1.01v-1.98c0-.51.44-.94.97-.94ZM7.1,6.6c3.59,0,5.87,2.21,5.87,5.1s-2.28,5.12-5.87,5.12h-3.08v4.73c0,.69-.55,1.26-1.22,1.26-.71,0-1.27-.57-1.27-1.26V7.96c0-.78.58-1.36,1.36-1.36h4.21ZM65.57,10.67c.51,0,.94.44.94.96v10.2c0,.55-.44.99-.94.99s-.97-.44-.97-.99v-10.2c0-.53.44-.96.97-.96ZM19.49,10.6c1.7,0,3.18.87,3.77,2.21v-.92c0-.67.55-1.22,1.22-1.22s1.24.55,1.24,1.22v9.72c0,.67-.58,1.22-1.24,1.22s-1.22-.55-1.22-1.22v-1.24c-.16,1.03-1.59,2.48-3.77,2.48-2.55,0-5.61-1.98-5.61-6.13s3.08-6.11,5.61-6.11ZM37.56,10.67c.64,0,1.13.51,1.13,1.1,0,.23-.07.39-.14.55l-6.14,14.01c-.25.57-.69.83-1.15.83-.64,0-1.08-.51-1.08-1.1,0-.23.07-.39.14-.55l1.43-3.28-4.39-9.9c-.07-.16-.14-.32-.14-.55,0-.6.48-1.1,1.13-1.1.46,0,.9.25,1.15.83l3.45,8.02,3.47-8.02c.25-.57.69-.83,1.15-.83Z"/>
    </clipPath>
    <clipPath id="clippath-3">
      <rect class="cls-1" x="-650.33" y="-2862" width="1440" height="4117"/>
    </clipPath>
  </defs>
  <!-- Generator: Adobe Illustrator 28.7.4, SVG Export Plug-In . SVG Version: 1.2.0 Build 166)  -->
  <g>
    <g id="Layer_1">
      <g class="cls-8">
        <g class="cls-4">
          <rect class="cls-7" x="90.01" y="-4.1" width="89.34" height="37.72"/>
        </g>
      </g>
      <g class="cls-6">
        <g class="cls-5">
          <rect class="cls-3" x="-3.47" y="1.05" width="95.55" height="31.11"/>
        </g>
      </g>
    </g>
  </g>
</svg>